<svg width="17" height="21" viewBox="0 0 17 21" fill="none" xmlns="http://www.w3.org/2000/svg">
<path d="M6.88972 0.635132C7.83423 0.635227 8.61023 1.47272 8.61043 2.50232V6.76404C8.89007 6.54074 9.23545 6.42256 9.58894 6.4281H9.62117C10.2809 6.42814 10.8547 6.83329 11.1407 7.43103C11.4517 7.09666 11.8803 6.90604 12.3292 6.90271C13.0617 6.90271 13.6876 7.40857 13.9337 8.11169C14.2377 7.82965 14.6324 7.6748 15.0411 7.67712H15.0714C16.0133 7.67726 16.7838 8.50333 16.7862 9.53064C16.7906 11.494 16.7924 12.1519 16.7901 13.934C16.7894 14.6 16.7939 15.4222 16.793 16.5248C16.7906 18.9891 14.9739 20.9955 12.7335 20.9955V21.0004H8.31453C6.83565 21.0004 5.47193 20.1127 4.75496 18.6908L0.833084 10.9095C0.755535 10.755 0.793044 10.5657 0.922928 10.4545L1.32625 10.1097C1.79175 9.66314 2.41506 9.43518 3.0489 9.47986C3.69616 9.52883 4.29481 9.85302 4.70125 10.3754L5.16512 10.9564L5.17293 2.50134C5.1735 1.47228 5.94611 0.635132 6.88972 0.635132ZM6.8907 1.37537C6.34191 1.37537 5.8864 1.8803 5.88582 2.50134L5.87996 11.9896C5.87991 12.1457 5.78409 12.2847 5.64168 12.3373C5.49921 12.3899 5.34014 12.3449 5.24422 12.224L4.14656 10.8461C3.86492 10.4816 3.44948 10.2537 2.9991 10.2181C2.55861 10.1884 2.12628 10.3492 1.80476 10.6615C1.80021 10.6657 1.79484 10.6702 1.79012 10.6742L1.60359 10.8353L5.39168 18.349C5.98456 19.5249 7.10497 20.2592 8.31551 20.2592H12.713C14.5597 20.2591 16.0634 18.5825 16.0655 16.5258C16.0666 15.4231 16.0677 14.5973 16.0684 13.931C16.0707 12.1504 16.0718 11.4934 16.0675 9.53162C16.066 8.91186 15.6192 8.41736 15.0714 8.41736H15.0421C14.4928 8.41736 14.0333 8.90395 14.0333 9.52576V10.4222C14.0333 10.6266 13.8729 10.7924 13.6749 10.7924C13.4769 10.7923 13.3165 10.6266 13.3165 10.4222V8.76599C13.3165 8.14401 12.8812 7.63806 12.3321 7.63806C11.7799 7.6381 11.3448 8.14421 11.3448 8.76599V10.5219C11.3448 10.7262 11.1843 10.8919 10.9864 10.892C10.7884 10.892 10.628 10.7262 10.628 10.5219V8.28357C10.6279 7.66206 10.1704 7.16833 9.62117 7.16833H9.58992C9.05518 7.16833 8.61141 7.63633 8.6114 8.23572V10.7552C8.6114 10.9596 8.45091 11.1253 8.25301 11.1254C8.05504 11.1254 7.89461 10.9596 7.89461 10.7552V8.30994C7.89461 8.30149 7.89364 8.2922 7.89363 8.28357C7.89363 8.26333 7.89461 8.2429 7.89461 8.22302V2.50232C7.89441 1.88102 7.43935 1.37559 6.8907 1.37537Z" fill="white"/>
</svg>
